<svg viewBox="0 0 64 64" xmlns="http://www.w3.org/2000/svg">
  <!-- Background circle with gradient -->
  <defs>
    <linearGradient id="bgGradient" x1="0%" y1="0%" x2="100%" y2="100%">
      <stop offset="0%" style="stop-color:#667eea;stop-opacity:1" />
      <stop offset="100%" style="stop-color:#764ba2;stop-opacity:1" />
    </linearGradient>
    <linearGradient id="leafGradient" x1="0%" y1="0%" x2="100%" y2="100%">
      <stop offset="0%" style="stop-color:#10b981;stop-opacity:1" />
      <stop offset="100%" style="stop-color:#059669;stop-opacity:1" />
    </linearGradient>
  </defs>
  
  <!-- Main background -->
  <circle cx="32" cy="32" r="30" fill="url(#bgGradient)" stroke="none"/>
  
  <!-- Zen circle (enso) -->
  <path d="M 20 32 Q 32 16 44 32 Q 32 48 20 32" 
        fill="none" 
        stroke="white" 
        stroke-width="3" 
        stroke-linecap="round" 
        opacity="0.9"/>
  
  <!-- Todo checkmarks integrated into design -->
  <g transform="translate(32, 32)">
    <!-- First checkmark (completed task) -->
    <circle cx="-8" cy="-6" r="3" fill="white" opacity="0.8"/>
    <path d="M -9.5 -6 L -8 -4.5 L -6 -7.5" 
          stroke="#10b981" 
          stroke-width="1.5" 
          stroke-linecap="round" 
          stroke-linejoin="round" 
          fill="none"/>
    
    <!-- Second checkmark (completed task) -->
    <circle cx="6" cy="-2" r="3" fill="white" opacity="0.8"/>
    <path d="M 4.5 -2 L 6 -0.5 L 8 -3.5" 
          stroke="#10b981" 
          stroke-width="1.5" 
          stroke-linecap="round" 
          stroke-linejoin="round" 
          fill="none"/>
    
    <!-- Third checkmark (in progress) -->
    <circle cx="-2" cy="8" r="3" fill="white" opacity="0.6"/>
    <path d="M -3.5 8 L -2 9.5 L 0 6.5" 
          stroke="#fbbf24" 
          stroke-width="1.5" 
          stroke-linecap="round" 
          stroke-linejoin="round" 
          fill="none"
          opacity="0.7"/>
  </g>
  
  <!-- Small zen leaf accent -->
  <path d="M 45 22 Q 48 18 52 22 Q 48 26 45 22" 
        fill="url(#leafGradient)" 
        opacity="0.7"/>
  
  <!-- Subtle dots for zen aesthetic -->
  <circle cx="18" cy="20" r="1" fill="white" opacity="0.4"/>
  <circle cx="46" cy="44" r="1" fill="white" opacity="0.4"/>
  <circle cx="22" cy="46" r="1" fill="white" opacity="0.4"/>
</svg>